<svg width="48" height="48" viewBox="0 0 48 48" fill="none" xmlns="http://www.w3.org/2000/svg">
<g clip-path="url(#clip0_226_7184)">
<path d="M24 48C37.2548 48 48 37.2548 48 24C48 10.7452 37.2548 0 24 0C10.7452 0 0 10.7452 0 24C0 37.2548 10.7452 48 24 48Z" fill="#FF931E"/>
<path d="M6.15725 16.4031C9.55781 16.4031 12.3145 13.6464 12.3145 10.2459C12.3145 6.84532 9.55781 4.08862 6.15725 4.08862C2.7567 4.08862 0 6.84532 0 10.2459C0 13.6464 2.7567 16.4031 6.15725 16.4031Z" fill="#FF931E"/>
<path d="M41.8428 16.4031C45.2434 16.4031 48.0001 13.6464 48.0001 10.2459C48.0001 6.84532 45.2434 4.08862 41.8428 4.08862C38.4422 4.08862 35.6855 6.84532 35.6855 10.2459C35.6855 13.6464 38.4422 16.4031 41.8428 16.4031Z" fill="#FF931E"/>
<path d="M22.6313 35.0698H20.2969C19.7831 35.0698 19.3711 34.7952 19.3711 34.4541V31.3666L23.5571 29.7764V34.4541C23.5571 34.7952 23.1408 35.0698 22.6313 35.0698Z" fill="white"/>
<path d="M25.3687 35.0698H27.7031C28.217 35.0698 28.6289 34.7952 28.6289 34.4541V31.3666L24.4429 29.7764V34.4541C24.4429 34.7952 24.8593 35.0698 25.3687 35.0698Z" fill="white"/>
<path d="M14.7421 27.7077C14.7421 27.7077 14.3568 31.504 19.0168 31.504C23.6768 31.504 23.9957 27.4641 23.9957 27.4641" stroke="black" stroke-width="2" stroke-miterlimit="10" stroke-linecap="round"/>
<path d="M33.258 27.7077C33.258 27.7077 33.6434 31.504 28.9834 31.504C24.3189 31.504 24.0044 27.4641 24.0044 27.4641" stroke="black" stroke-width="2" stroke-miterlimit="10" stroke-linecap="round"/>
<path d="M24.1594 27.7386C25.5282 27.7032 28.6555 25.2359 27.1229 24.4297C25.5902 23.6235 24 23.6722 24 23.6722C24 23.6722 22.4141 23.6235 20.877 24.4297C19.3399 25.2359 22.4717 27.7076 23.8405 27.7386H24.155H24.1594Z" fill="black" stroke="black" stroke-width="2" stroke-miterlimit="10" stroke-linecap="round"/>
<path d="M13.4575 19.3798C13.4575 17.7364 15.1054 16.4031 17.1386 16.4031C19.1718 16.4031 20.8196 17.7364 20.8196 19.3798" stroke="black" stroke-width="2" stroke-miterlimit="10" stroke-linecap="round"/>
<path d="M27.1851 19.3798C27.1851 17.7364 28.8329 16.4031 30.8661 16.4031C32.8993 16.4031 34.5472 17.7364 34.5472 19.3798" stroke="black" stroke-width="2" stroke-miterlimit="10" stroke-linecap="round"/>
</g>
<defs>
<clipPath id="clip0_226_7184">
<rect width="48" height="48" fill="white"/>
</clipPath>
</defs>
</svg>
