<svg width="489" height="500" viewBox="0 0 489 500" fill="none" xmlns="http://www.w3.org/2000/svg">
<g clip-path="url(#clip0_226_6806)">
<path d="M109.19 300.428C164.726 300.428 209.748 255.42 209.748 199.9C209.748 144.38 164.726 99.3716 109.19 99.3716C53.6528 99.3716 8.63135 144.38 8.63135 199.9C8.63135 255.42 53.6528 300.428 109.19 300.428Z" fill="#3B7BE8"/>
<path d="M310.291 228.381C365.827 228.381 410.849 183.373 410.849 127.853C410.849 72.3325 365.827 27.3245 310.291 27.3245C254.754 27.3245 209.732 72.3325 209.732 127.853C209.732 183.373 254.754 228.381 310.291 228.381Z" fill="#3B7BE8"/>
<path d="M187.341 417.12C242.878 417.12 287.899 372.112 287.899 316.592C287.899 261.071 242.878 216.063 187.341 216.063C131.804 216.063 86.7827 261.071 86.7827 316.592C86.7827 372.112 131.804 417.12 187.341 417.12Z" fill="#3B7BE8"/>
<path d="M388.442 328.91C443.978 328.91 489 283.901 489 228.381C489 172.861 443.978 127.853 388.442 127.853C332.905 127.853 287.883 172.861 287.883 228.381C287.883 283.901 332.905 328.91 388.442 328.91Z" fill="#3B7BE8"/>
<path d="M209.748 314.513C265.285 314.513 310.306 269.504 310.306 213.984C310.306 158.464 265.285 113.456 209.748 113.456C154.211 113.456 109.189 158.464 109.189 213.984C109.189 269.504 154.211 314.513 209.748 314.513Z" fill="#3B7BE8"/>
<path d="M178.929 205.074C226.512 205.074 265.086 166.512 265.086 118.943C265.086 71.3736 226.512 32.8113 178.929 32.8113C131.345 32.8113 92.7715 71.3736 92.7715 118.943C92.7715 166.512 131.345 205.074 178.929 205.074Z" fill="#3B7BE8"/>
<path d="M327.804 406.506C375.387 406.506 413.961 367.944 413.961 320.375C413.961 272.806 375.387 234.243 327.804 234.243C280.22 234.243 241.646 272.806 241.646 320.375C241.646 367.944 280.22 406.506 327.804 406.506Z" fill="#3B7BE8"/>
<path d="M295.029 383.293L307.585 493.919C307.961 497.218 310.744 499.703 314.059 499.703H408.691C411.599 499.703 413.945 497.358 413.945 494.451V487.432C413.945 480.679 408.472 475.208 401.717 475.208H395.087C392.648 475.208 390.6 473.379 390.318 470.972L377.59 361.002L294.998 383.293H295.029Z" fill="#3B7BE8"/>
<path d="M249.402 383.011L246.416 494.232C246.04 497.53 243.257 500.016 239.942 500.016H145.31C142.402 500.016 140.056 497.671 140.056 494.763V487.745C140.056 480.992 145.529 475.52 152.284 475.52H158.914C161.353 475.52 163.401 473.691 163.683 471.284L166.826 360.736L249.418 383.027L249.402 383.011Z" fill="#3B7BE8"/>
<path d="M303.739 460.014L307.585 493.919C307.961 497.217 310.744 499.703 314.059 499.703H408.691C411.599 499.703 413.945 497.358 413.945 494.451V487.432C413.945 480.679 408.472 475.208 401.717 475.208H395.087C392.648 475.208 390.599 473.379 390.318 470.972L389.051 460.014H303.723H303.739Z" fill="#7AC943"/>
<path d="M247.322 460.014L246.4 494.216C246.025 497.514 243.241 500 239.926 500H145.294C142.386 500 140.041 497.655 140.041 494.748V487.729C140.041 480.976 145.513 475.505 152.268 475.505H158.898C161.337 475.505 163.386 473.676 163.667 471.269L163.98 460.014H247.338H247.322Z" fill="#7AC943"/>
<path d="M319.751 268.649C349.95 268.649 374.431 244.175 374.431 213.984C374.431 183.794 349.95 159.32 319.751 159.32C289.551 159.32 265.07 183.794 265.07 213.984C265.07 244.175 289.551 268.649 319.751 268.649Z" fill="white"/>
<mask id="mask0_226_6806" style="mask-type:luminance" maskUnits="userSpaceOnUse" x="306" y="177" width="78" height="78">
<path d="M345.254 254.596C366.541 254.596 383.798 237.344 383.798 216.063C383.798 194.782 366.541 177.531 345.254 177.531C323.967 177.531 306.71 194.782 306.71 216.063C306.71 237.344 323.967 254.596 345.254 254.596Z" fill="white"/>
</mask>
<g mask="url(#mask0_226_6806)">
<path d="M319.751 268.649C349.95 268.649 374.431 244.175 374.431 213.984C374.431 183.794 349.95 159.32 319.751 159.32C289.551 159.32 265.07 183.794 265.07 213.984C265.07 244.175 289.551 268.649 319.751 268.649Z" fill="black"/>
</g>
<path d="M190.03 268.649C220.23 268.649 244.711 244.175 244.711 213.984C244.711 183.794 220.23 159.32 190.03 159.32C159.831 159.32 135.35 183.794 135.35 213.984C135.35 244.175 159.831 268.649 190.03 268.649Z" fill="white"/>
<mask id="mask1_226_6806" style="mask-type:luminance" maskUnits="userSpaceOnUse" x="176" y="177" width="79" height="78">
<path d="M215.533 254.596C236.82 254.596 254.077 237.344 254.077 216.063C254.077 194.782 236.82 177.531 215.533 177.531C194.246 177.531 176.989 194.782 176.989 216.063C176.989 237.344 194.246 254.596 215.533 254.596Z" fill="white"/>
</mask>
<g mask="url(#mask1_226_6806)">
<path d="M190.03 268.649C220.229 268.649 244.711 244.175 244.711 213.984C244.711 183.794 220.229 159.32 190.03 159.32C159.831 159.32 135.349 183.794 135.349 213.984C135.349 244.175 159.831 268.649 190.03 268.649Z" fill="black"/>
</g>
<path d="M197.755 283.233C198.052 294.019 208.669 302.726 219.067 302.758C225.838 302.758 233.641 299.913 238.441 295.02C240.552 292.863 237.237 289.549 235.126 291.706C231.624 295.286 225.51 297.771 220.24 298.052C216.644 298.24 213.172 297.427 210.155 295.426C206.199 292.816 202.587 288.111 202.446 283.249C202.368 280.232 197.677 280.232 197.755 283.249V283.233Z" fill="black"/>
<path d="M400.154 78.9877L384.533 74.22C382.125 73.4853 379.498 73.8917 377.434 75.3455L364.065 84.7246C358.701 88.4918 351.305 84.7246 351.18 78.1748L350.899 61.8552C350.852 59.3385 349.648 56.9781 347.631 55.4618L334.574 45.6606C329.336 41.7214 330.618 33.5303 336.826 31.3887L352.275 26.0739C354.667 25.2454 356.528 23.3852 357.356 20.9936L362.657 5.5493C364.784 -0.656545 372.977 -1.95399 376.933 3.28268L386.769 16.3196C388.285 18.3361 390.647 19.5398 393.164 19.5711L409.489 19.8368C416.04 19.9462 419.824 27.3401 416.056 32.7018L406.69 46.0827C405.235 48.1461 404.829 50.7722 405.564 53.1795L410.364 68.7801C412.287 75.0485 406.424 80.926 400.154 79.0033V78.9877Z" fill="#FCCD21"/>
<path d="M436.977 96.339L436.195 85.9907C436.086 84.8652 435.977 83.2864 435.977 81.5981C435.977 78.1122 437.775 76.9867 440.933 76.6428L445.781 76.0801C455.006 74.9546 458.274 73.3758 458.274 69.2177C458.274 64.8252 453.552 62.9181 447.016 62.9181C442.403 62.9181 437.337 63.6997 433.162 64.7158C429.675 65.7318 427.642 64.8252 426.86 61.4487L425.172 53.5703C424.39 49.8499 425.844 47.5989 429.456 46.364C433.615 44.7852 440.261 43.6597 448.032 43.6597C469.767 43.6597 481.479 52.1009 481.479 67.7483C481.479 80.2382 473.379 87.7883 458.962 90.477L458.509 96.3233C458.29 99.3559 456.601 100.606 453.443 99.9187C451.41 99.5748 449.721 99.4653 447.704 99.4653C445.796 99.4653 443.982 99.5748 441.965 99.9187C438.807 100.591 437.243 99.3559 437.009 96.3233L436.977 96.339ZM433.944 117.504C433.944 110.189 438.901 105.906 447.563 105.906C456.226 105.906 461.183 110.189 461.183 117.504C461.183 124.82 456.335 129.103 447.563 129.103C438.791 129.103 433.944 124.945 433.944 117.504Z" fill="#7AC943"/>
<path d="M36.5112 217.814L0.328337 291.471C-0.875673 293.941 1.45416 296.645 4.08109 295.801L29.1464 287.735C31.3824 287.016 33.5715 288.939 33.165 291.237L26.6133 328.19C26.0035 331.629 30.6631 333.318 32.3831 330.269L73.4289 258.05C74.8362 255.581 72.4751 252.673 69.77 253.548L42.7658 262.255C40.6392 262.943 38.497 261.224 38.7159 259.004L42.4218 219.44C42.7501 216.001 38.0436 214.672 36.5268 217.783L36.5112 217.814Z" fill="#FF931E"/>
</g>
<defs>
<clipPath id="clip0_226_6806">
<rect width="489" height="500" fill="white"/>
</clipPath>
</defs>
</svg>
