<?xml version="1.0" encoding="UTF-8" standalone="no"?>
<svg
    width="53" height="53" viewBox="0 0 53 53"
    xmlns:dc="http://purl.org/dc/elements/1.1/" xmlns:cc="http://creativecommons.org/ns#"
    xmlns:rdf="http://www.w3.org/1999/02/22-rdf-syntax-ns#"
    xmlns:svg="http://www.w3.org/2000/svg"
    xmlns="http://www.w3.org/2000/svg" version="1.1" fill="none">
    <defs id="defs69811" />
    <path
        d="M8.83325 29.8123V8.83317C8.83325 7.6618 9.29858 6.5384 10.1269 5.71012C10.9551 4.88183 12.0785 4.4165 13.2499 4.4165H32.0208L44.1666 16.5623V44.1665C44.1666 45.3379 43.7013 46.4613 42.873 47.2896C42.0447 48.1178 40.9213 48.5832 39.7499 48.5832H27.6041M30.9166 4.4165V17.6665H44.1666M23.0108 27.8474C23.4414 27.4168 23.9527 27.0751 24.5153 26.8421C25.078 26.609 25.6811 26.4891 26.2901 26.4891C26.8992 26.4891 27.5022 26.609 28.0649 26.8421C28.6276 27.0751 29.1389 27.4168 29.5695 27.8474C30.0002 28.2781 30.3418 28.7893 30.5748 29.352C30.8079 29.9147 30.9279 30.5178 30.9279 31.1268C30.9279 31.7358 30.8079 32.3389 30.5748 32.9016C30.3418 33.4642 30.0002 33.9755 29.5695 34.4062L17.5562 46.3753L8.83325 48.5837L11.0195 39.8607L23.0108 27.8474Z"
        stroke-width="3" stroke-linecap="round" stroke-linejoin="round" />
</svg>