<?xml version="1.0" encoding="UTF-8" standalone="no"?>
<svg width="46" height="46" viewBox="0 0 46 46" xmlns:dc="http://purl.org/dc/elements/1.1/"
    xmlns:cc="http://creativecommons.org/ns#"
    xmlns:rdf="http://www.w3.org/1999/02/22-rdf-syntax-ns#"
    xmlns:svg="http://www.w3.org/2000/svg"
    xmlns="http://www.w3.org/2000/svg" version="1.1" fill="none">
    <path
        d="M3.83325 19.1667H42.1666M7.66659 38.3333H38.3333C39.3499 38.3333 40.3249 37.9295 41.0438 37.2106C41.7627 36.4917 42.1666 35.5167 42.1666 34.5V15.3333C42.1666 14.3167 41.7627 13.3416 41.0438 12.6228C40.3249 11.9039 39.3499 11.5 38.3333 11.5H23.1341C22.5027 11.4967 21.8819 11.3376 21.3269 11.0366C20.7718 10.7357 20.2997 10.3023 19.9524 9.775L18.3808 7.475C18.0335 6.94768 17.5614 6.51431 17.0063 6.21337C16.4513 5.91244 15.8305 5.75327 15.1991 5.75H7.66659C6.64992 5.75 5.6749 6.15387 4.95601 6.87276C4.23712 7.59165 3.83325 8.56667 3.83325 9.58333V34.5C3.83325 36.6083 5.55825 38.3333 7.66659 38.3333Z"
        stroke-width="3" stroke-linecap="round" stroke-linejoin="round" />
</svg>