<svg width="34" height="34" viewBox="0 0 34 34" fill="none" xmlns="http://www.w3.org/2000/svg">
<path d="M19.1252 9.91659C19.5164 9.91659 19.8335 9.59945 19.8335 9.20825C19.8335 8.81705 19.5164 8.49992 19.1252 8.49992C18.734 8.49992 18.4168 8.81705 18.4168 9.20825C18.4168 9.59945 18.734 9.91659 19.1252 9.91659Z" stroke="white" stroke-width="2" stroke-linecap="round" stroke-linejoin="round"/>
<path d="M24.7918 15.5833C25.183 15.5833 25.5002 15.2661 25.5002 14.8749C25.5002 14.4837 25.183 14.1666 24.7918 14.1666C24.4006 14.1666 24.0835 14.4837 24.0835 14.8749C24.0835 15.2661 24.4006 15.5833 24.7918 15.5833Z" stroke="white" stroke-width="2" stroke-linecap="round" stroke-linejoin="round"/>
<path d="M12.0418 11.3333C12.433 11.3333 12.7502 11.0161 12.7502 10.6249C12.7502 10.2337 12.433 9.91659 12.0418 9.91659C11.6506 9.91659 11.3335 10.2337 11.3335 10.6249C11.3335 11.0161 11.6506 11.3333 12.0418 11.3333Z" stroke="white" stroke-width="2" stroke-linecap="round" stroke-linejoin="round"/>
<path d="M9.2085 18.4166C9.5997 18.4166 9.91683 18.0995 9.91683 17.7083C9.91683 17.317 9.5997 16.9999 9.2085 16.9999C8.81729 16.9999 8.50016 17.317 8.50016 17.7083C8.50016 18.0995 8.81729 18.4166 9.2085 18.4166Z" stroke="white" stroke-width="2" stroke-linecap="round" stroke-linejoin="round"/>
<path d="M17.0002 2.83325C9.2085 2.83325 2.8335 9.20825 2.8335 16.9999C2.8335 24.7916 9.2085 31.1666 17.0002 31.1666C18.312 31.1666 19.3348 30.1098 19.3348 28.7753C19.3348 28.1562 19.0798 27.5923 18.7157 27.1815C18.3049 26.7721 18.0952 26.2578 18.0952 25.5878C18.0899 25.276 18.1473 24.9663 18.2642 24.6772C18.381 24.388 18.5549 24.1254 18.7754 23.9049C18.9959 23.6844 19.2585 23.5105 19.5476 23.3937C19.8368 23.2768 20.1465 23.2194 20.4582 23.2248H23.2859C27.6082 23.2248 31.1555 19.6788 31.1555 15.3566C31.1172 8.51692 24.7366 2.83325 17.0002 2.83325Z" stroke="white" stroke-width="2" stroke-linecap="round" stroke-linejoin="round"/>
</svg>
