<svg width="46" height="46" viewBox="0 0 46 46" fill="none" xmlns="http://www.w3.org/2000/svg">
<path d="M26.8333 36.4168C26.8333 33.3668 25.6216 30.4418 23.465 28.2851C21.3083 26.1284 18.3832 24.9168 15.3333 24.9168M15.3333 24.9168C12.2833 24.9168 9.35819 26.1284 7.20152 28.2851C5.04486 30.4418 3.83325 33.3668 3.83325 36.4168M15.3333 24.9168C19.5674 24.9168 22.9999 21.4843 22.9999 17.2502C22.9999 13.016 19.5674 9.5835 15.3333 9.5835C11.0991 9.5835 7.66659 13.016 7.66659 17.2502C7.66659 21.4843 11.0991 24.9168 15.3333 24.9168ZM42.1666 36.4168C42.1666 33.3668 40.955 30.4418 38.7983 28.2851C36.6416 26.1284 33.7166 24.9168 30.6666 24.9168C32.6999 24.9168 34.65 24.1091 36.0877 22.6713C37.5255 21.2335 38.3333 19.2835 38.3333 17.2502C38.3333 15.2168 37.5255 13.2668 36.0877 11.829C34.65 10.3912 32.6999 9.5835 30.6666 9.5835" stroke="black" stroke-width="3" stroke-linecap="round" stroke-linejoin="round"/>
</svg>
